<svg xmlns="http://www.w3.org/2000/svg" width="110" height="110" version="1.0" viewBox="0 0 110 110" id="bus"><g><path fill="#DF2C2C" d="M79 31a8 8 0 0 0-8-8H39a8 8 0 0 0-8 8v50a2 2 0 0 0 2 2h44a2 2 0 0 0 2-2V31z"></path><path fill="#FA5655" d="M76.198 24.926A7.963 7.963 0 0 0 71 23H39a8 8 0 0 0-8 8v39.124l45.198-45.198z"></path><path fill="#3E3E3F" d="M31 83v2a2 2 0 002 2h8a2 2 0 002-2v-2H31zM67 85a2 2 0 002 2h8a2 2 0 002-2v-2H67v2z"></path><path fill="#FA5655" d="M81 74a4 4 0 0 0-4-4h-9l-2.447-2.894A2 2 0 0 0 63.764 66H46.236a2 2 0 0 0-1.789 1.106L42 70h-9a4 4 0 0 0-4 4v7a2 2 0 0 0 2 2h48a2 2 0 0 0 2-2v-7z"></path><path fill="#BF0302" d="M54 69h-7a2 2 0 00-2 2v7a2 2 0 002 2h7V69zM56 69h7a2 2 0 012 2v7a2 2 0 01-2 2h-7V69z"></path><circle cx="37" cy="77" r="3" fill="#FBE158"></circle><circle cx="72" cy="77" r="3" fill="#FBE158"></circle><path fill="#E2E4E5" d="M31 47h48v2H31z"></path><path fill="#FFF" d="M54.124 47H31v2h21.124z"></path><path fill="#40C9E7" d="M75 49H57v12a2 2 0 0 0 2 2h14a2 2 0 0 0 2-2V49z"></path><path fill="#6FDAF1" d="M35 37a2 2 0 0 0 2 2h14a2 2 0 0 0 2-2v-8a2 2 0 0 0-2-2H37a2 2 0 0 0-2 2v8z"></path><path fill="#40C9E7" d="M57 37a2 2 0 0 0 2 2h14a2 2 0 0 0 2-2v-8a2 2 0 0 0-2-2H59a2 2 0 0 0-2 2v8z"></path><path fill="#6FDAF1" d="M73 27H59a2 2 0 0 0-2 2v8a2 2 0 0 0 2 2h3.124L73.9 27.223A1.977 1.977 0 0 0 73 27z"></path><path fill="#FBEC9A" d="M72 74.044a3 3 0 00-3 3c0 .751.286 1.43.742 1.956l4.214-4.214A2.976 2.976 0 0072 74.044zM37 74a3 3 0 00-3 3c0 .751.286 1.43.742 1.956l4.214-4.214A2.976 2.976 0 0037 74z"></path><path fill="#40C9E7" d="M35 49h18v8H35zM35 61a2 2 0 002 2h14a2 2 0 002-2v-2H35v2z"></path><path fill="#6FDAF1" d="M44.124 57l8-8H35v8zM35 59v2a2 2 0 002 2h1.124l4-4H35z"></path></g></svg>